<svg width="50" height="50" viewBox="0 0 50 50" fill="none" xmlns="http://www.w3.org/2000/svg">
<path d="M44.5312 32.0312H41.4062C41.1312 32.0312 40.8703 32.0875 40.625 32.175V31.25C40.625 29.9578 39.5734 28.9062 38.2812 28.9062H37.3281L36.5477 25.7812H35.1562V17.9688H38.1102L38.8906 14.8438H39.8438V13.2812H33.5938V10.1562H32.0312V13.2812H25.7812V14.8438H26.7344L27.5148 17.9688H30.4688V25.7812H29.0773L28.6609 27.4492L27.8266 25.7812H17.1875V17.9688H20.3125C21.1742 17.9688 21.875 17.268 21.875 16.4062V14.8438C23.1672 14.8438 24.2188 13.7922 24.2188 12.5V4.6875C24.2188 3.39531 23.1672 2.34375 21.875 2.34375H7.8125C6.52031 2.34375 5.46875 3.39531 5.46875 4.6875V12.5C5.46875 13.7922 6.52031 14.8438 7.8125 14.8438V16.4062C7.8125 17.268 8.51328 17.9688 9.375 17.9688H12.5V28.9062H11.7188C10.4266 28.9062 9.375 29.9578 9.375 31.25V32.175C9.12969 32.0875 8.86875 32.0312 8.59375 32.0312H5.46875C4.17656 32.0312 3.125 33.0828 3.125 34.375V46.875C3.125 48.1672 4.17656 49.2188 5.46875 49.2188H8.59375C9.88594 49.2188 10.9375 48.1672 10.9375 46.875V44.5312H39.0625V46.875C39.0625 48.1672 40.1141 49.2188 41.4062 49.2188H44.5312C45.8234 49.2188 46.875 48.1672 46.875 46.875V34.375C46.875 33.0828 45.8234 32.0312 44.5312 32.0312ZM28.3445 14.8438H37.2812L36.8898 16.4062H28.7352L28.3445 14.8438ZM32.0312 17.9688H33.5938V25.7812H32.0312V17.9688ZM35.3273 27.3438L35.7188 28.9062H29.907L30.2984 27.3438H35.3273ZM26.8609 27.3438L27.6422 28.9062H17.1875V27.3438H26.8609ZM7.8125 3.90625H10.9375V7.03125H7.03125V4.6875C7.03125 4.25625 7.38125 3.90625 7.8125 3.90625ZM7.03125 12.5V8.59375H10.9375C11.7992 8.59375 12.5 7.89297 12.5 7.03125V3.90625H21.875C22.3062 3.90625 22.6562 4.25625 22.6562 4.6875V12.5C22.6562 12.9312 22.3062 13.2812 21.875 13.2812H13.2812V11.7188H11.7188V13.2812H10.1562V11.7188H8.59375V13.2812H7.8125C7.38125 13.2812 7.03125 12.9312 7.03125 12.5ZM9.375 14.8438H20.3125V16.4062H9.375V14.8438ZM15.625 17.9688V31.25C15.625 31.6812 15.275 32.0312 14.8438 32.0312C14.4125 32.0312 14.0625 31.6812 14.0625 31.25V17.9688H15.625ZM10.9375 31.25C10.9375 30.8188 11.2875 30.4688 11.7188 30.4688H12.5V31.25C12.5 32.5422 13.5516 33.5938 14.8438 33.5938C16.1359 33.5938 17.1875 32.5422 17.1875 31.25V30.4688H38.2812C38.7125 30.4688 39.0625 30.8188 39.0625 31.25V34.375V39.8438H38.0383L36.2523 35.1562H13.7477L11.9617 39.8438H10.9375V34.375V31.25ZM13.6336 39.8438L14.8242 36.7188H17.1875V39.8438H13.6336ZM18.75 36.7188H20.3125V39.8438H18.75V36.7188ZM21.875 36.7188H25.7812V39.8438H21.875V36.7188ZM27.3438 36.7188H28.9062V39.8438H27.3438V36.7188ZM30.4688 36.7188H32.0312V39.8438H30.4688V36.7188ZM33.5938 36.7188H35.175L36.3656 39.8438H33.5938V36.7188ZM8.59375 47.6562H5.46875C5.0375 47.6562 4.6875 47.3063 4.6875 46.875V46.0938H6.25V44.5312H4.6875V42.9688H6.25V41.4062H4.6875V39.8438H6.25V38.2812H4.6875V36.7188H6.25V35.1562H4.6875V34.375C4.6875 33.9438 5.0375 33.5938 5.46875 33.5938H8.59375C9.025 33.5938 9.375 33.9438 9.375 34.375V35.1562H7.8125V36.7188H9.375V38.2812H7.8125V39.8438H9.375V40.625V41.4062H7.8125V42.9688H9.375V44.5312H7.8125V46.0938H9.375V46.875C9.375 47.3063 9.025 47.6562 8.59375 47.6562ZM10.9375 42.9688V41.4062H39.0625V42.9688H10.9375ZM44.5312 47.6562H41.4062C40.975 47.6562 40.625 47.3063 40.625 46.875V46.0938H42.1875V44.5312H40.625V42.9688H42.1875V41.4062H40.625V40.625V39.8438H42.1875V38.2812H40.625V36.7188H42.1875V35.1562H40.625V34.375C40.625 33.9438 40.975 33.5938 41.4062 33.5938H44.5312C44.9625 33.5938 45.3125 33.9438 45.3125 34.375V35.1562H43.75V36.7188H45.3125V38.2812H43.75V39.8438H45.3125V41.4062H43.75V42.9688H45.3125V44.5312H43.75V46.0938H45.3125V46.875C45.3125 47.3063 44.9625 47.6562 44.5312 47.6562Z" fill="#283618"/>
<path d="M29.6875 32.0312H28.125V33.5938H29.6875V32.0312Z" fill="#283618"/>
<path d="M32.8125 32.0312H31.25V33.5938H32.8125V32.0312Z" fill="#283618"/>
<path d="M35.9375 32.0312H34.375V33.5938H35.9375V32.0312Z" fill="#283618"/>
<path d="M17.1875 12.5C19.3414 12.5 21.0938 10.7477 21.0938 8.59375C21.0938 6.43984 19.3414 4.6875 17.1875 4.6875C15.0336 4.6875 13.2812 6.43984 13.2812 8.59375C13.2812 10.7477 15.0336 12.5 17.1875 12.5ZM17.1875 6.25C18.4797 6.25 19.5312 7.30156 19.5312 8.59375C19.5312 9.88594 18.4797 10.9375 17.1875 10.9375C15.8953 10.9375 14.8438 9.88594 14.8438 8.59375C14.8438 7.30156 15.8953 6.25 17.1875 6.25Z" fill="#283618"/>
<path d="M17.9688 7.8125H16.4062V9.375H17.9688V7.8125Z" fill="#283618"/>
<path d="M33.5938 7.03125H32.0312V8.59375H33.5938V7.03125Z" fill="#283618"/>
<path d="M36.1265 5.27969C35.2422 4.39375 34.0656 3.90625 32.8125 3.90625C31.5594 3.90625 30.3828 4.39375 29.4984 5.27969L30.6031 6.38437C31.7828 5.20312 33.8422 5.20312 35.0219 6.38437L36.1265 5.27969Z" fill="#283618"/>
<path d="M32.8125 2.34375C34.482 2.34375 36.0516 2.99375 37.232 4.17422L38.3367 3.06953C36.8609 1.59375 34.8984 0.78125 32.8125 0.78125C30.7265 0.78125 28.7641 1.59375 27.2883 3.06953L28.393 4.17422C29.5734 2.99375 31.143 2.34375 32.8125 2.34375Z" fill="#283618"/>
</svg>
