<?xml version="1.0" encoding="utf-8"?>
<svg viewBox="0 0 500 500" xmlns="http://www.w3.org/2000/svg">
  <g transform="matrix(1, 0, 0, 1, 75.786858, -47.133644)">
    <defs>
      <rect id="SVGID_1_" width="841.89" height="595.28"/>
    </defs>
    <clipPath id="SVGID_00000066497316693370838250000012195236217853456556_">
      <rect width="1048.527" height="741.391" style="overflow: visible;" x="-315.886" y="-71.747"/>
    </clipPath>
    <path style="clip-path: url(#SVGID_00000066497316693370838250000012195236217853456556_);" d="M 281.49 49.359 C 303.696 52.648 303.858 53.768 306.238 76.286 C 306.898 102.552 317.434 164.999 271.839 140.115 C 258.488 140.962 246.195 141.173 235.994 132.942 C 227.078 134.834 211.148 128.57 205.843 136.305 C 205.245 139.555 204.946 143.08 203.6 146.093 C 197.535 165.161 205.183 149.792 214.149 172.907 C 218.347 179.746 220.689 190.818 227.439 194.84 C 245.809 196.161 264.117 199.087 282.81 199.846 C 332.778 204.343 326.762 202.437 321.879 250.91 C 321.145 258.793 321.456 266.914 319.377 274.611 C 332.727 288.784 356.354 282.495 374.139 285.197 C 380.328 284.798 390.404 288.012 394.626 284.014 C 395.012 279.045 399.608 276.803 403.843 275.546 C 405.898 271.821 409.759 269.641 414.118 270.164 C 430.284 275.171 417.38 296.144 417.119 307.479 C 414.915 315.474 415.687 325.762 408.165 330.806 C 406.707 331.939 405.026 332.848 404.901 335.053 C 404.08 342.251 393.306 346.15 388.399 340.222 C 383.853 336.273 386.37 330.93 386.893 326.334 C 373.005 325.127 358.371 326.197 344.273 325.948 C 335.032 323.058 325.355 324.616 316.835 319.746 C 313.872 319.609 316.051 325.674 314.482 327.779 C 312.141 350.696 309.762 373.475 307.084 396.378 C 306.337 418.609 301.492 446.908 274.279 449.087 C 270.419 453.782 283.383 460.532 286.036 465.116 C 291.591 468.416 299.972 468.915 298.59 477.932 C 295.054 483.897 298.939 490.386 297.83 496.912 C 296.946 502.429 292.575 509.005 296.921 513.862 C 300.532 520.201 294.031 527.575 287.481 526.828 C 285.613 525.882 284.304 526.517 282.96 527.936 C 276.782 536.006 268.39 540.166 259.646 542.658 C 254.042 550.342 245.709 545.733 241.437 539.93 C 237.415 538.523 233.467 539.979 229.356 539.083 C 215.632 537.053 221.461 540.054 213.788 546.393 C 198.37 551.823 203.289 537.115 196.875 537.464 C 189.59 537.228 182.504 535.508 175.08 535.956 C 174.047 535.931 173.636 536.294 173.436 537.364 C 172.103 546.368 157.32 547.59 155.476 537.912 C 155.078 535.346 154.48 534.998 151.903 534.985 C 142.96 535.62 132.062 533.142 124.864 539.207 C 122.746 541.5 119.034 541.598 116.195 540.378 C 107.116 532.931 94.5 537.315 83.428 536.168 C 79.567 533.69 76.18 537.589 72.431 537.203 C 62.504 531.449 53.599 522.556 47.696 512.244 C 47.023 510.961 46.002 511.21 45.018 511.696 C 38.592 515.121 30.658 509.467 31.33 502.504 C 32.912 490.772 41.929 496.538 43.635 491.083 C 44.159 484.159 46.239 477.121 48.642 470.546 C 50.884 465.962 40.921 465.128 42.377 458.976 C 41.369 451.205 48.855 445.275 56.09 447.68 C 57.771 447.779 59.664 451.441 61.159 449.298 C 65.817 442.834 70.101 436.059 75.444 430.117 C 77.923 428.473 71.795 425.435 70.202 425.448 C 39.812 423.927 22.487 426.618 -0.877 404.636 C -8.81 399.256 -3.84 364.607 0.082 356.861 C 8.29 339.649 16.348 343.173 16.36 318.775 C 17.743 308.936 19.15 299.258 20.059 289.307 C 16.584 274.959 20.781 260.102 20.234 245.493 C 18.366 238.867 12.537 233.649 16.024 226.15 C 19.051 218.043 17.556 208.889 20.022 200.556 C 21.69 185.313 32.464 192.524 41.095 190.257 C 41.73 186.147 45.305 183.581 48.953 182.373 C 59.639 174.202 73.987 182.585 86.366 181.165 C 93.105 181.452 103.666 186.371 107.265 177.927 C 116.146 169.022 118.536 149.904 133.868 151.15 C 135.002 151.249 135.575 151.199 135.861 149.767 C 142.86 129.827 146.958 108.692 155.028 89.227 C 159.475 80.956 151.94 64.305 165.863 62.885 C 187.87 60.182 210.875 62.337 233.267 61.665 C 236.556 60.792 235.496 55.686 239.283 54.254 C 245.946 51.863 253.357 50.928 260.418 52.61 C 268.239 54.951 273.482 47.417 281.49 49.359 M 130.219 362.316 C 113.817 355.203 131.564 333.209 141.067 348.354 C 142.873 351.144 145.464 345.577 147.145 344.592 C 151.317 339.948 158.043 340.346 162.925 336.746 C 165.502 336.684 161.879 328.65 167.645 324.33 C 173.287 320.755 181.419 323.469 182.677 330.32 C 184.869 333.234 179.427 337.743 184.882 338.689 C 193.476 342.612 202.554 346.835 207.437 355.39 C 208.146 356.275 209.205 356.749 210.376 356.163 C 218.895 353.597 224.424 365.665 218.783 371.682 C 219.804 380.798 228.522 389.379 232.134 398.347 C 233.404 399.355 235.347 397.972 236.581 397.337 C 242.584 394.573 248.089 400.327 249.159 405.807 C 248.425 414.312 241.25 414.088 250.33 421.947 C 253.021 426.406 276.483 427.602 280.133 424.45 C 290.321 409.182 288.228 378.382 291.317 359.376 C 293.372 349.562 293.073 339.548 294.99 329.56 C 293.919 324.168 298.889 316.171 294.928 312.111 C 265.935 298.1 233.492 288.834 207.424 269.792 C 197.261 260.55 200.338 241.407 213.178 236.102 C 237.838 228.604 275.338 260.251 300.694 267.014 C 302.264 255.855 303.31 244.733 303.734 233.462 C 303.622 230.285 307.308 223.784 303.323 222.527 C 287.916 222.091 272.897 220.533 257.679 218.828 C 205.918 215.527 154.256 209.524 102.596 206.324 C 89.393 204.442 75.892 203.919 62.591 202.612 C 58.357 199.797 59.813 231.182 58.593 234.707 C 53.835 288.859 50.312 343.073 45.965 397.337 C 43.237 404.051 48.567 404.287 53.948 403.889 C 58.257 404.574 62.006 405.533 66.477 405.134 C 73.713 407.525 81.459 405.284 88.796 407.164 C 94.325 409.307 97.228 402.767 101.275 399.853 C 83.141 392.355 99.556 369.365 111.637 385.194 C 118.312 377.772 122.808 369.265 130.219 362.316 M 134.316 391.857 C 120.455 410.539 104.899 427.876 88.808 444.715 C 115.598 441.539 139.472 466.46 134.865 493.175 C 136.583 497.173 126.234 511.384 129.871 510.911 C 146.099 511.447 161.493 515.968 178.07 514.698 C 183.35 514.423 206.951 519.143 207.723 515.381 C 185.405 489.377 209.342 446.908 242.721 449.684 C 228.834 434.7 214.672 420.128 206.851 401.385 C 190.549 434.825 139.97 429.47 134.316 391.857 M 206.727 112.665 C 243.592 112.765 233.678 117.797 234.039 83.448 C 221.847 77.769 200.824 82.351 185.741 80.969 C 182.092 82.326 175.977 80.184 177.11 85.951 C 177.184 94.246 176.823 102.59 178.331 110.76 C 184.284 115.792 198.208 111.121 206.727 112.665 M 70.176 486.911 C 68.98 516.229 116.706 517.786 114.253 486.849 C 111.413 460.507 69.815 457.818 70.176 486.911 M 224.462 495.58 C 222.42 519.566 258.04 515.631 261.389 495.604 C 266.01 462.326 223.74 466.473 224.462 495.58 M 171.045 368.169 C 142.586 370.411 152.998 408.023 178.68 398.845 C 196.651 391.322 189.229 367.011 171.045 368.169 M 127.13 184.801 C 151.28 188.438 176.325 189.21 200.189 192.474 C 197.398 187.94 197.548 179.223 192.292 177.765 C 183.014 178.176 174.022 175.71 164.656 176.482 C 155.265 174.552 145.775 176.233 136.409 174.154 C 131.764 175.598 131.016 181.389 127.13 184.801 M 163.759 130.873 C 162.576 137.488 161.431 144.076 159.225 150.303 C 156.385 155.882 165.764 152.295 168.081 154.936 C 172.003 154.438 177.161 156.169 180.485 154.239 C 183.437 147.7 183.998 140.103 186.563 133.315 C 179.078 131.584 170.609 135.208 163.759 130.873 M 255.71 95.715 C 255.735 95.715 255.76 95.715 255.785 95.715 C 255.797 103.125 255.76 110.549 255.797 117.959 C 256.432 121.77 262.074 117.859 264.827 119.029 C 266.57 106.339 264.354 87.657 262.834 73.21 C 250.778 66.098 257.192 89.077 255.71 95.715 M 26.647 362.353 C 27.096 351.244 17.805 362.141 17.843 367.783 C 19.947 375.181 11.577 389.018 21.703 391.035 C 26.548 390.687 23.746 367.995 26.647 362.353 M 312.39 296.568 C 302.09 287.713 284.665 283.441 272.026 276.019 C 262.249 273.801 246.481 258.395 239.358 264.362 C 263.694 275.096 287.904 285.782 312.39 296.568 M 287.344 123.165 C 287.854 106.588 287.892 89.899 286.285 73.521 C 286.285 70.856 286.298 70.856 283.794 70.221 C 281.528 73.746 283.308 80.894 284.142 85.303 C 285.14 97.857 283.358 111.395 287.344 123.165 M 38.443 214.68 L 38.006 214.68 L 38.006 223.71 L 38.443 223.71 L 38.443 214.68 Z" transform="matrix(0.999848, -0.01743, 0.01743, 0.999848, -5.167973, 3.680737)"/>
  </g>
</svg>