<?xml version="1.0" standalone="no"?>
<svg xmlns="http://www.w3.org/2000/svg" viewBox="0 0 102.672 29" width="102.672" height="29"><g fill="#283618" color="#283618" transform="translate(0, 0) scale(0.453125)"><svg width="64.0" height="64.0" x="0.0" y="0.0" viewBox="0 0 64 64"><g><path d="M57,41h-4c-0.352,0-0.686,0.072-1,0.184V40c0-1.654-1.346-3-3-3h-1.22l-0.999-4H45V23h3.781l0.999-4H51v-2h-8v-4h-2v4h-8v2   h1.22l0.999,4H39v10h-1.781l-0.533,2.135L35.618,33H22V23h4c1.103,0,2-0.897,2-2v-2c1.654,0,3-1.346,3-3V6c0-1.654-1.346-3-3-3H10   C8.346,3,7,4.346,7,6v10c0,1.654,1.346,3,3,3v2c0,1.103,0.897,2,2,2h4v14h-1c-1.654,0-3,1.346-3,3v1.184   C11.686,41.072,11.352,41,11,41H7c-1.654,0-3,1.346-3,3v16c0,1.654,1.346,3,3,3h4c1.654,0,3-1.346,3-3v-3h36v3c0,1.654,1.346,3,3,3   h4c1.654,0,3-1.346,3-3V44C60,42.346,58.654,41,57,41z M36.281,19h11.439l-0.501,2H36.781L36.281,19z M41,23h2v10h-2V23z    M45.219,35l0.501,2h-7.439l0.501-2H45.219z M34.382,35l1,2H22v-2H34.382z M10,5h4v4H9V6C9,5.448,9.448,5,10,5z M9,16v-5h5   c1.103,0,2-0.897,2-2V5h12c0.552,0,1,0.448,1,1v10c0,0.552-0.448,1-1,1H17v-2h-2v2h-2v-2h-2v2h-1C9.448,17,9,16.552,9,16z M12,19   h14v2H12V19z M20,23v17c0,0.552-0.448,1-1,1s-1-0.448-1-1V23H20z M14,40c0-0.552,0.448-1,1-1h1v1c0,1.654,1.346,3,3,3s3-1.346,3-3   v-1h27c0.552,0,1,0.448,1,1v4v7h-1.311l-2.286-6H17.597l-2.286,6H14v-7V40z M17.451,51l1.524-4H22v4H17.451z M24,47h2v4h-2V47z    M28,47h5v4h-5V47z M35,47h2v4h-2V47z M39,47h2v4h-2V47z M43,47h2.024l1.524,4H43V47z M11,61H7c-0.552,0-1-0.448-1-1v-1h2v-2H6v-2   h2v-2H6v-2h2v-2H6v-2h2v-2H6v-1c0-0.552,0.448-1,1-1h4c0.552,0,1,0.448,1,1v1h-2v2h2v2h-2v2h2v1v1h-2v2h2v2h-2v2h2v1   C12,60.552,11.552,61,11,61z M14,55v-2h36v2H14z M57,61h-4c-0.552,0-1-0.448-1-1v-1h2v-2h-2v-2h2v-2h-2v-1v-1h2v-2h-2v-2h2v-2h-2   v-1c0-0.552,0.448-1,1-1h4c0.552,0,1,0.448,1,1v1h-2v2h2v2h-2v2h2v2h-2v2h2v2h-2v2h2v1C58,60.552,57.552,61,57,61z"></path><rect x="36" y="41" width="2" height="2"></rect><rect x="40" y="41" width="2" height="2"></rect><rect x="44" y="41" width="2" height="2"></rect><path d="M22,16c2.757,0,5-2.243,5-5s-2.243-5-5-5s-5,2.243-5,5S19.243,16,22,16z M22,8c1.654,0,3,1.346,3,3s-1.346,3-3,3   s-3-1.346-3-3S20.346,8,22,8z"></path><rect x="21" y="10" width="2" height="2"></rect><rect x="41" y="9" width="2" height="2"></rect><path d="M46.242,6.758C45.11,5.624,43.604,5,42,5s-3.11,0.624-4.242,1.758l1.414,1.414c1.51-1.512,4.146-1.512,5.656,0   L46.242,6.758z"></path><path d="M42,3c2.137,0,4.146,0.832,5.657,2.343l1.414-1.414C47.182,2.04,44.67,1,42,1s-5.182,1.04-7.071,2.929l1.414,1.414   C37.854,3.832,39.863,3,42,3z"></path></g></svg></g><line x1="41" y1="1" x2="41" y2="28" stroke="#283618" stroke-linecap="round"></line><path fill="#283618" fill-rule="nonzero" d="M10.75 1.51L10.75 1.51L10.03 2.54Q8.42 1.54 6.74 1.54L6.74 1.54Q4.44 1.54 3.12 3.43L3.12 3.43Q1.90 5.16 1.90 8.04L1.90 8.04Q1.90 11.04 3.48 12.72L3.48 12.72Q4.82 14.18 6.94 14.18L6.94 14.18Q8.66 14.18 10.22 13.06L10.22 13.06L10.94 14.14Q9.07 15.77 6.70 15.77L6.70 15.77Q3.41 15.77 1.54 13.22L1.54 13.22Q0 11.14 0 8.04L0 8.04Q0 4.58 1.87 2.23L1.87 2.23Q3.65 0 6.41 0L6.41 0Q8.86 0 10.75 1.51ZM16.08 3.34L16.08 15.48L14.30 15.48L14.30 0.29L15.91 0.29Q18.10 3.58 23.52 12.67L23.52 12.67L23.52 0.29L25.30 0.29L25.30 15.48L23.64 15.48Q22.34 13.54 18.36 7.08L18.36 7.08Q16.68 4.34 16.08 3.34L16.08 3.34ZM32.69 1.80L28.06 1.80L28.06 0.29L39.48 0.29L39.48 1.80L34.46 1.80L34.46 15.48L32.69 15.48L32.69 1.80ZM44.02 15.48L42.24 15.48L42.24 0.29Q44.38 0 45.94 0L45.94 0Q51.31 0 51.31 4.61L51.31 4.61Q51.31 7.75 48.62 8.83L48.62 8.83L51.67 15.48L49.87 15.48L47.06 9.26L47.04 9.24Q46.63 9.29 46.03 9.29L46.03 9.29Q45.10 9.29 44.02 9.14L44.02 9.14L44.02 15.48ZM44.02 1.58L44.02 1.58L44.02 7.70Q44.88 7.85 45.94 7.85L45.94 7.85Q49.44 7.85 49.44 4.61L49.44 4.61Q49.44 1.42 45.94 1.42L45.94 1.42Q44.83 1.42 44.02 1.58Z" transform="translate(51, 6.616)"></path></svg>