<?xml version="1.0" standalone="no"?>
<!DOCTYPE svg PUBLIC "-//W3C//DTD SVG 20010904//EN"
 "http://www.w3.org/TR/2001/REC-SVG-20010904/DTD/svg10.dtd">
<svg version="1.0" xmlns="http://www.w3.org/2000/svg"
 width="350.000000pt" height="403.000000pt" viewBox="0 0 350.000000 403.000000"
 preserveAspectRatio="xMidYMid meet">

<g transform="translate(0.000000,403.000000) scale(0.100000,-0.100000)"
fill="#000000" stroke="none">
<path d="M2275 4018 c-13 -8 -59 -13 -127 -14 -99 0 -109 -2 -133 -24 -14 -13
-25 -29 -25 -37 0 -10 -50 -13 -252 -13 -263 -1 -329 -7 -355 -33 -10 -10 -18
-44 -23 -94 -4 -43 -12 -88 -18 -99 -10 -18 -152 -477 -152 -490 0 -2 -11 -4
-25 -4 -43 0 -91 -30 -110 -69 -9 -19 -41 -70 -70 -111 l-54 -76 -190 18 -190
19 -51 -26 c-29 -15 -56 -37 -63 -52 -10 -23 -15 -25 -60 -20 -58 7 -92 -6
-106 -42 -6 -14 -18 -73 -26 -131 -8 -58 -18 -120 -21 -137 -4 -23 0 -44 14
-71 18 -36 20 -54 17 -263 -3 -216 -13 -342 -37 -479 -9 -55 -18 -74 -57 -120
-70 -83 -82 -116 -94 -272 -11 -150 -6 -181 38 -208 13 -8 48 -36 78 -62 34
-31 65 -49 83 -50 16 -1 38 -8 50 -15 13 -8 84 -17 185 -23 90 -6 176 -15 190
-21 l27 -10 -65 -87 c-43 -58 -71 -86 -82 -84 -71 15 -80 14 -105 -12 -37 -36
-36 -88 2 -116 l29 -21 -24 -81 c-13 -44 -23 -91 -23 -104 0 -19 -5 -24 -24
-24 -40 0 -70 -32 -70 -75 0 -51 34 -79 85 -71 36 6 38 4 69 -45 18 -27 49
-62 69 -77 19 -15 45 -38 56 -50 12 -14 31 -24 45 -23 212 3 314 -1 327 -15
27 -26 62 -28 95 -4 25 19 47 23 134 28 l104 5 11 -31 c22 -64 108 -65 132 -2
7 19 17 28 27 26 8 -3 57 -8 108 -11 81 -6 92 -9 92 -26 0 -28 36 -59 68 -59
31 0 72 32 72 56 0 14 14 15 94 12 88 -3 96 -5 120 -30 30 -34 77 -37 106 -8
11 11 27 20 35 20 32 0 86 30 133 74 36 34 57 46 80 46 21 0 37 8 51 26 25 31
26 52 7 80 -13 18 -13 28 1 80 9 37 13 79 10 112 -3 30 -2 64 3 76 12 34 -13
84 -47 92 -28 7 -108 76 -144 126 l-19 26 51 11 c109 24 183 100 208 216 6 28
29 221 51 430 22 208 42 381 44 382 2 2 16 -2 32 -8 49 -21 152 -31 351 -35
l193 -5 -6 -44 c-6 -38 -3 -47 19 -69 41 -41 99 -28 122 26 7 18 24 43 38 54
31 28 39 53 78 252 29 154 30 164 14 188 -9 14 -26 29 -38 33 -24 9 -66 -3
-82 -23 -5 -7 -25 -20 -42 -30 -19 -9 -35 -27 -39 -41 -7 -29 -12 -29 -314
-16 -170 8 -177 9 -238 40 -48 24 -62 36 -58 49 14 45 46 482 37 505 -20 52
-37 56 -422 93 -304 29 -366 37 -377 51 -7 10 -35 62 -63 118 -59 115 -94 165
-115 165 -17 0 -18 -5 10 105 l23 90 126 3 c115 2 128 1 146 -17 29 -29 91
-43 182 -40 65 2 83 -1 100 -17 26 -23 127 -26 177 -5 50 21 65 60 73 191 8
121 -5 400 -21 461 -17 63 -50 80 -185 93 -40 4 -67 2 -80 -6z m127 -204 c9
-72 9 -392 -1 -374 -5 8 -11 69 -15 135 -3 66 -9 160 -13 209 -5 74 -4 88 8
84 8 -3 17 -25 21 -54z m-181 -44 c4 -41 9 -127 11 -190 l4 -115 -43 -1 -43
-1 0 194 0 194 33 -3 32 -3 6 -75z m-241 -53 c0 -34 3 -92 7 -129 l6 -68 -231
0 -231 0 -5 43 c-3 23 -7 79 -8 124 -3 81 -3 82 22 86 14 2 118 4 233 5 l207
0 0 -61z m-455 -357 c68 0 76 -2 72 -17 -3 -10 -15 -51 -27 -92 l-21 -74 -87
7 c-47 3 -87 8 -88 9 -2 2 7 44 19 94 19 80 23 90 39 82 9 -5 51 -9 93 -9z
m-55 -351 c102 -6 188 -13 192 -17 3 -4 16 -31 27 -61 l20 -53 -47 5 c-26 4
-150 16 -277 27 -126 12 -238 24 -248 28 -16 6 -15 11 14 50 30 42 31 42 82
37 29 -3 135 -10 237 -16z m-33 -279 c455 -38 891 -75 968 -81 77 -6 141 -13
143 -14 2 -2 -4 -79 -12 -173 -9 -93 -16 -174 -16 -180 0 -6 -91 33 -202 85
-323 151 -377 173 -432 173 -184 0 -230 -238 -61 -320 25 -12 45 -25 45 -29 0
-4 137 -68 305 -142 249 -110 305 -138 305 -153 0 -73 -83 -771 -96 -813 -27
-82 -36 -86 -152 -78 -110 8 -106 6 -145 54 -26 32 -27 34 -11 52 24 26 22 76
-3 101 -22 21 -54 27 -88 15 -18 -6 -28 7 -78 97 -49 87 -57 108 -48 125 29
54 0 111 -58 111 -30 0 -40 5 -51 25 -17 32 -62 67 -134 102 -51 25 -57 31
-53 53 6 29 -15 75 -38 84 -54 20 -105 -14 -105 -70 0 -29 -5 -33 -62 -58 -35
-15 -75 -39 -90 -53 l-27 -26 -31 27 c-40 33 -55 33 -91 -3 -37 -37 -37 -66 1
-101 l29 -27 -21 -19 c-11 -11 -45 -52 -75 -92 l-54 -73 -26 21 c-54 42 -123
11 -123 -55 0 -27 7 -39 30 -57 l30 -22 -32 -33 c-31 -32 -35 -33 -88 -28 -30
2 -117 10 -194 16 l-138 12 5 46 c3 25 31 389 63 809 42 547 62 762 70 762 7
0 385 -31 841 -70z m-1030 -87 c-2 -16 -4 -5 -4 22 0 28 2 40 4 28 2 -13 2
-35 0 -50z m1921 -453 c155 -73 282 -137 282 -141 0 -5 -26 3 -57 17 -32 14
-161 71 -288 126 -126 55 -234 104 -239 108 -9 9 1 33 12 27 4 -2 134 -64 290
-137z m-2018 -657 c0 -38 -20 -246 -24 -250 -2 -2 -16 1 -31 7 l-27 10 7 103
c6 91 10 105 33 130 14 15 29 27 34 27 4 0 8 -12 8 -27z m1252 -89 c63 -46 76
-121 32 -174 -68 -81 -170 -81 -238 0 -46 55 -25 136 46 181 41 25 122 22 160
-7z m-328 -299 c87 -114 233 -152 363 -95 55 24 126 90 144 132 6 15 14 28 18
28 3 0 17 -27 30 -60 23 -60 48 -94 188 -253 l71 -82 -60 -8 c-109 -14 -206
-84 -255 -186 -24 -47 -28 -69 -28 -136 0 -71 4 -89 32 -145 17 -36 31 -66 29
-67 -9 -9 -616 40 -633 52 -2 1 7 21 20 46 18 37 22 60 22 144 0 114 -15 153
-88 232 -56 60 -124 94 -210 102 l-68 6 98 106 c93 101 238 273 257 306 6 12
13 3 25 -35 10 -28 30 -67 45 -87z m-316 -482 c42 -20 77 -66 92 -121 39 -146
-103 -258 -246 -193 -61 28 -97 80 -102 150 -11 148 117 229 256 164z m1225
-53 c46 -40 60 -78 55 -143 -8 -101 -83 -163 -185 -155 -79 7 -106 36 -111
122 -4 57 -1 71 21 109 54 92 156 123 220 67z"/>
</g>
</svg>
